<?xml version="1.0" standalone="no"?>
<!DOCTYPE svg PUBLIC "-//W3C//DTD SVG 20010904//EN"
 "http://www.w3.org/TR/2001/REC-SVG-20010904/DTD/svg10.dtd">
<svg version="1.0" xmlns="http://www.w3.org/2000/svg"
 width="1280.000000pt" height="640.000000pt" viewBox="0 0 1280.000000 640.000000"
 preserveAspectRatio="xMidYMid meet">
<g transform="translate(0.000000,640.000000) scale(0.100000,-0.100000)"
fill="#000000" stroke="none">
<path d="M7585 4808 c-11 -6 -26 -18 -32 -26 -18 -22 -16 -97 2 -131 16 -31
14 -35 -36 -60 -50 -25 -137 -100 -167 -143 -64 -92 -62 -186 3 -289 61 -96
60 -94 42 -153 -29 -92 -24 -106 51 -125 23 -7 42 -16 42 -21 0 -20 -105 -40
-209 -40 -114 0 -138 -8 -180 -62 -28 -34 -27 -42 10 -100 43 -67 65 -81 94
-62 12 8 88 23 169 34 148 20 194 33 246 70 l29 21 53 -30 c55 -31 152 -54
273 -66 39 -4 89 -15 112 -25 l42 -18 35 38 c19 21 42 53 51 70 16 30 15 33
-10 66 -41 54 -70 64 -192 65 -116 1 -188 16 -188 39 0 8 14 17 34 21 18 4 42
16 53 26 19 19 19 23 4 80 -21 79 -20 106 2 127 31 28 75 125 80 177 6 65 -19
129 -72 187 -41 44 -146 122 -165 122 -20 0 -22 21 -5 68 20 56 14 93 -21 128
-20 19 -34 24 -77 24 -29 0 -62 -6 -73 -12z m99 -51 c37 -27 13 -97 -33 -97
-23 0 -51 31 -51 56 0 22 33 54 55 54 6 0 19 -6 29 -13z m-7 -275 c6 -4 13
-20 15 -37 2 -21 9 -31 27 -35 52 -12 55 -86 3 -92 -23 -3 -27 -8 -30 -41 -3
-37 -4 -38 -40 -35 -35 3 -37 5 -40 40 -3 32 -7 37 -30 40 -24 3 -27 7 -27 43
0 36 3 40 28 43 22 3 27 8 27 31 0 42 34 64 67 43z m144 -332 c10 -6 19 -17
19 -25 0 -28 -39 -35 -188 -35 -130 0 -153 2 -172 18 -21 17 -21 19 -5 35 14
15 39 17 171 17 88 0 164 -4 175 -10z m-7 -110 c31 -11 34 -35 6 -50 -26 -14
-223 -25 -283 -16 -26 4 -54 15 -63 24 -15 15 -15 17 6 34 19 15 42 18 165 18
79 0 155 -4 169 -10z"/>
<path d="M535 4802 c-6 -4 -16 -19 -22 -34 -10 -22 -19 -28 -43 -28 -43 0 -42
-40 3 -71 61 -43 61 -56 1 -113 -41 -38 -47 -49 -52 -95 -2 -28 -9 -54 -14
-57 -6 -4 -34 6 -64 21 -76 39 -163 39 -227 2 -58 -34 -82 -66 -103 -132 -17
-52 -17 -55 5 -105 12 -28 48 -91 80 -139 61 -94 78 -143 88 -250 7 -81 22
-107 77 -131 130 -58 514 -48 612 16 29 19 31 27 44 128 14 111 30 153 94 250
30 45 60 95 66 111 16 42 14 128 -3 162 -21 38 -76 89 -112 103 -56 22 -138
16 -199 -14 -61 -30 -76 -28 -76 10 0 39 -24 86 -64 123 -47 45 -47 74 -1 103
26 17 35 30 35 51 0 23 -4 27 -28 27 -22 0 -32 7 -45 35 -16 34 -32 42 -52 27z
m-213 -416 c100 -48 174 -152 185 -261 5 -47 10 -59 29 -67 34 -16 50 3 57 64
14 114 92 219 199 268 119 54 248 -13 248 -129 0 -72 -93 -228 -163 -272 -29
-19 -42 -20 -152 -13 -152 9 -202 9 -353 -1 l-124 -8 -66 69 c-86 90 -126 168
-120 236 9 90 73 142 168 135 30 -2 72 -11 92 -21z m415 -552 c62 -6 104 -34
85 -56 -10 -12 -56 -15 -274 -14 -258 1 -263 1 -266 22 -2 14 6 24 25 33 49
23 275 31 430 15z"/>
<path d="M193 4343 c-12 -2 -34 -15 -48 -29 -24 -22 -27 -31 -22 -70 6 -53 60
-139 113 -179 30 -23 46 -27 109 -28 102 -3 112 8 95 97 -19 104 -84 182 -170
206 -36 10 -40 10 -77 3z"/>
<path d="M816 4335 c-78 -27 -138 -109 -157 -211 -12 -67 -5 -79 54 -87 85
-12 122 1 181 61 62 62 86 105 86 154 0 45 -23 75 -68 88 -46 12 -48 12 -96
-5z"/>
<path d="M2853 4758 c-31 -36 -33 -51 -12 -118 11 -36 19 -90 19 -128 -1 -81
-31 -244 -46 -249 -12 -4 -51 77 -84 176 -16 49 -20 83 -18 152 2 80 1 90 -21
113 -31 33 -63 39 -106 22 -61 -26 -73 -95 -25 -149 16 -19 34 -46 40 -61 14
-39 13 -243 -2 -252 -16 -10 -80 63 -108 123 -18 38 -21 58 -16 101 7 62 -9
102 -49 120 -34 16 -50 15 -84 -3 -63 -32 -62 -119 3 -169 28 -21 34 -33 39
-78 3 -30 17 -104 32 -166 24 -101 31 -117 77 -174 27 -35 58 -79 69 -100 18
-36 18 -37 -6 -109 -32 -95 -32 -115 3 -133 58 -30 155 -41 362 -40 200 0 294
10 348 36 37 18 39 57 7 141 -30 82 -26 99 55 196 49 59 54 70 81 181 15 65
31 142 35 170 4 34 14 58 27 69 76 62 83 121 21 170 -32 25 -55 26 -94 6 -43
-22 -53 -48 -45 -112 6 -49 3 -62 -24 -117 -35 -71 -85 -126 -102 -109 -5 5
-10 58 -11 120 0 116 3 126 58 203 19 26 24 43 20 64 -12 61 -66 94 -123 75
-48 -15 -64 -52 -57 -130 4 -44 1 -84 -11 -129 -23 -89 -76 -211 -89 -207 -17
5 -44 153 -45 243 -1 49 5 98 14 124 20 58 19 92 -6 124 -28 35 -95 37 -126 4z
m103 -33 c30 -46 -17 -101 -64 -76 -46 25 -29 101 23 101 15 0 31 -10 41 -25z
m-286 -55 c12 -22 4 -60 -14 -72 -22 -15 -65 -8 -76 11 -25 47 -5 81 47 81 22
0 36 -6 43 -20z m582 -5 c17 -38 -3 -75 -42 -75 -21 0 -34 8 -46 25 -15 23
-15 27 0 50 12 17 25 25 46 25 23 0 33 -6 42 -25z m-830 -102 c10 -9 18 -24
18 -35 0 -22 -34 -58 -55 -58 -8 0 -24 9 -35 20 -11 11 -20 27 -20 35 0 20 36
55 57 55 9 0 25 -7 35 -17z m1058 -3 c11 -11 20 -27 20 -35 0 -20 -36 -55 -57
-55 -44 0 -69 63 -37 94 21 22 50 20 74 -4z m-291 -482 c51 -16 71 -39 53 -61
-11 -12 -61 -15 -325 -13 -172 0 -318 5 -324 9 -39 25 11 62 105 77 85 13 438
5 491 -12z m-99 -209 c92 -11 130 -28 130 -59 0 -34 -28 -39 -176 -30 -78 5
-199 5 -270 0 -80 -5 -135 -5 -146 1 -28 15 -22 46 11 64 61 31 295 44 451 24z"/>
<path d="M9931 4641 l-32 -40 -52 24 c-29 13 -71 27 -94 31 l-43 7 0 -71 c0
-81 -16 -129 -100 -307 -75 -158 -120 -273 -120 -305 0 -16 11 -42 25 -59 29
-34 111 -65 148 -56 19 5 28 2 37 -14 19 -37 45 -25 90 44 48 73 101 125 159
155 51 25 51 25 51 -8 0 -29 -26 -75 -117 -207 -49 -71 -67 -113 -75 -175 l-3
-25 371 -3 371 -2 7 31 c18 90 -3 317 -40 446 -57 199 -183 364 -314 414 -27
10 -66 19 -86 19 -33 0 -37 3 -59 53 -21 48 -58 87 -84 87 -5 0 -23 -18 -40
-39z m237 -187 c48 -20 148 -119 202 -200 76 -116 120 -285 120 -461 0 -49 -4
-67 -20 -83 -45 -45 -66 0 -74 155 -11 213 -61 340 -181 454 -51 48 -89 75
-124 88 -56 19 -71 41 -45 60 20 14 67 9 122 -13z m-319 -72 c13 -25 -16 -69
-66 -99 -48 -29 -69 -29 -84 -1 -15 27 12 82 50 103 38 21 88 19 100 -3z
m-249 -378 c0 -21 -37 -54 -61 -54 -31 0 -23 60 11 77 26 13 50 2 50 -23z"/>
<path d="M12308 4658 c-38 -22 -68 -69 -68 -106 0 -11 7 -39 16 -63 14 -41 14
-45 -2 -54 -37 -22 -75 -59 -89 -86 -34 -64 -10 -170 47 -212 15 -11 28 -24
28 -28 0 -4 -23 -21 -50 -39 -119 -76 -170 -172 -178 -337 l-5 -103 383 0 383
0 -6 103 c-8 166 -53 253 -172 331 -30 21 -55 41 -55 46 0 5 11 17 25 26 31
20 65 90 65 135 0 51 -39 120 -83 149 -31 19 -37 28 -31 45 16 48 16 126 -1
151 -41 64 -137 83 -207 42z"/>
<path d="M4912 4647 c-19 -20 -22 -35 -22 -97 l0 -75 73 -72 72 -73 3 -152 c2
-84 1 -167 -3 -185 -4 -24 -29 -56 -95 -121 l-90 -87 0 -62 c0 -100 -32 -93
449 -93 311 0 420 3 429 12 7 7 12 40 12 78 l0 65 -90 90 -90 90 0 183 0 184
70 72 70 73 0 80 c0 102 -10 113 -102 113 -68 0 -83 -8 -90 -45 -3 -16 -11
-20 -43 -20 -33 0 -41 4 -43 22 -6 38 -24 44 -133 41 l-103 -3 -8 -32 c-8 -30
-12 -33 -48 -33 -35 0 -40 3 -40 23 0 37 -19 47 -90 47 -57 0 -70 -3 -88 -23z
m582 -303 c10 -4 16 -18 16 -40 l0 -34 -212 2 -213 3 -3 23 c-7 49 6 52 208
52 104 0 195 -3 204 -6z m11 -364 l0 -35 -210 0 -210 0 -3 23 c-7 50 5 53 222
50 l201 -3 0 -35z"/>
<path d="M7615 2806 c-56 -24 -73 -71 -50 -138 20 -59 20 -61 -26 -82 -54 -25
-165 -129 -192 -180 -43 -83 -25 -180 55 -293 l30 -41 -16 -55 c-28 -97 -22
-116 47 -140 20 -6 37 -16 39 -21 6 -19 -89 -37 -193 -37 -117 1 -148 -11
-193 -72 -20 -27 -20 -29 -3 -60 10 -17 31 -48 47 -67 27 -33 29 -34 63 -22
18 7 87 19 153 27 144 19 207 36 257 70 l38 26 33 -20 c56 -35 115 -51 254
-71 77 -11 144 -26 159 -35 23 -15 26 -15 45 2 32 28 78 100 78 120 0 11 -18
37 -40 58 l-41 40 -117 2 c-114 2 -204 18 -203 38 0 5 17 15 38 22 21 7 46 22
55 33 16 19 15 25 -3 91 l-20 71 45 67 c77 113 85 204 25 295 -31 47 -129 130
-186 160 -38 19 -37 14 -17 75 14 44 14 52 0 85 -24 57 -96 81 -161 52z m85
-46 c48 -26 44 -91 -5 -110 -27 -10 -62 1 -77 24 -16 23 -8 65 14 80 26 19 42
20 68 6z m66 -206 c114 -58 204 -166 204 -245 -1 -52 -34 -115 -71 -134 -67
-35 -391 -35 -457 -1 -37 19 -60 59 -68 119 -12 87 77 200 211 268 70 35 100
34 181 -7z m102 -485 l3 -44 -198 1 -198 1 -3 32 c-2 18 -1 38 1 44 3 9 60 12
198 11 l194 0 3 -45z m-8 -93 c36 -16 38 -44 4 -57 -43 -16 -364 -17 -391 -1
-27 15 -29 34 -8 52 34 28 337 33 395 6z m-116 -135 c76 -49 112 -59 254 -70
124 -10 162 -25 162 -65 0 -43 -18 -48 -132 -36 -194 19 -261 37 -324 85 l-32
25 -51 -34 c-58 -39 -105 -51 -284 -72 -140 -16 -157 -13 -157 32 0 40 38 55
165 65 146 11 179 20 251 69 33 22 65 40 73 40 8 0 42 -18 75 -39z"/>
<path d="M7650 2429 c0 -25 -6 -33 -30 -42 -41 -15 -42 -54 -2 -59 23 -3 27
-8 30 -40 3 -30 7 -38 23 -38 14 0 19 7 19 28 0 36 10 49 40 53 32 5 43 49 11
49 -27 0 -51 26 -51 56 0 17 -5 24 -20 24 -16 0 -20 -7 -20 -31z"/>
<path d="M553 2788 c-4 -7 -13 -22 -18 -33 -6 -11 -24 -22 -40 -25 -46 -8 -46
-44 -1 -71 19 -11 38 -29 41 -39 7 -21 -10 -60 -25 -60 -6 0 -23 -19 -40 -42
-22 -30 -30 -52 -30 -84 0 -52 -12 -61 -48 -37 -47 33 -81 43 -141 43 -130 0
-221 -85 -221 -208 0 -44 19 -87 80 -177 60 -89 86 -158 99 -268 17 -142 62
-162 361 -162 160 0 206 3 254 18 84 26 102 48 110 137 11 106 36 176 97 271
70 108 79 130 79 189 0 60 -13 96 -48 133 -74 79 -188 94 -285 39 -54 -31 -57
-31 -67 -13 -5 11 -10 36 -10 56 0 29 -9 45 -45 84 -55 59 -57 83 -10 113 26
17 35 30 35 51 0 24 -4 27 -31 27 -25 0 -32 6 -45 35 -15 36 -36 45 -51 23z
m76 -287 c25 -25 37 -102 23 -149 -15 -50 -70 -134 -84 -130 -6 2 -26 32 -45
67 -41 78 -46 162 -12 205 26 33 88 37 118 7z m-286 -131 c55 -28 133 -104
160 -155 24 -47 48 -141 40 -160 -8 -23 -68 -37 -196 -45 -146 -10 -148 -9
-213 89 -54 82 -64 131 -40 196 37 95 146 128 249 75z m623 11 c49 -22 80 -60
94 -112 15 -56 0 -103 -62 -189 l-53 -73 -140 5 c-94 3 -151 10 -170 19 -27
13 -30 19 -28 61 4 116 109 250 230 294 52 18 81 17 129 -5z m-327 -407 c14
-2 77 -8 140 -13 62 -5 117 -13 122 -18 11 -11 -5 -141 -18 -154 -4 -4 -37 0
-73 8 -88 22 -377 23 -473 2 -48 -11 -70 -13 -76 -5 -12 15 -30 139 -22 148 3
4 63 12 131 19 69 6 141 15 160 19 19 5 46 6 59 4 13 -3 35 -7 50 -10z m164
-233 c32 -17 35 -36 6 -52 -49 -26 -405 -29 -471 -4 -22 9 -30 31 -14 44 27
22 98 30 271 28 129 -2 188 -6 208 -16z"/>
<path d="M2875 2745 c-27 -26 -31 -58 -14 -102 19 -49 26 -134 18 -212 -10
-100 -28 -181 -40 -181 -16 0 -67 118 -89 205 -16 61 -19 96 -14 146 6 60 4
68 -18 93 -33 39 -95 41 -132 7 -34 -32 -36 -98 -5 -127 45 -40 54 -73 54
-191 0 -140 -10 -157 -61 -98 -56 66 -74 112 -74 194 0 68 -2 75 -30 103 -27
26 -36 30 -68 25 -48 -8 -82 -47 -82 -94 0 -29 8 -43 39 -74 28 -25 42 -49 46
-75 4 -22 20 -100 37 -174 27 -119 34 -140 67 -179 99 -118 103 -131 72 -203
-30 -71 -35 -121 -14 -140 31 -27 121 -40 328 -45 241 -6 388 11 418 48 20 25
15 72 -14 131 -35 69 -28 90 62 200 43 51 49 66 72 170 15 62 31 139 36 171 9
47 17 64 51 96 32 30 40 45 40 74 0 47 -34 86 -81 93 -28 5 -41 1 -67 -21 -31
-26 -32 -30 -32 -103 0 -67 -4 -84 -29 -127 -32 -55 -87 -112 -98 -102 -13 13
-16 176 -4 224 7 26 26 65 42 87 56 76 25 157 -60 160 -36 1 -47 -4 -68 -29
-23 -26 -25 -35 -20 -90 7 -76 -11 -167 -53 -269 -51 -121 -58 -117 -84 45
-19 116 -17 168 10 252 27 82 -4 137 -76 137 -30 0 -47 -7 -65 -25z m99 -21
c32 -32 10 -94 -34 -94 -27 0 -50 27 -50 60 0 45 52 66 84 34z m-286 -56 c7
-7 12 -24 12 -38 0 -14 -5 -31 -12 -38 -7 -7 -24 -12 -38 -12 -14 0 -31 5 -38
12 -7 7 -12 24 -12 38 0 14 5 31 12 38 7 7 24 12 38 12 14 0 31 -5 38 -12z
m580 0 c7 -7 12 -24 12 -38 0 -14 -5 -31 -12 -38 -7 -7 -24 -12 -38 -12 -14 0
-31 5 -38 12 -7 7 -12 24 -12 38 0 14 5 31 12 38 7 7 24 12 38 12 14 0 31 -5
38 -12z m-826 -115 c22 -20 23 -56 2 -77 -34 -34 -84 -8 -84 44 0 46 47 65 82
33z m1060 0 c22 -20 23 -51 1 -75 -32 -35 -85 -12 -85 37 0 48 48 70 84 38z
m-767 -192 c30 -73 63 -128 93 -154 20 -18 21 -18 35 5 14 21 47 124 62 191
10 48 28 24 52 -71 12 -51 30 -104 39 -118 l17 -25 24 23 c14 13 47 69 75 126
28 56 54 102 59 102 5 0 9 -30 9 -67 0 -74 18 -193 31 -207 5 -6 42 24 90 73
44 45 84 80 87 77 14 -15 -31 -195 -56 -226 l-18 -22 -40 20 c-89 46 -158 57
-354 57 -195 0 -265 -11 -353 -56 -36 -19 -40 -19 -57 -4 -25 23 -75 235 -55
235 2 0 41 -37 85 -82 47 -47 84 -78 89 -72 12 13 31 142 31 207 0 90 14 87
55 -12z m330 -265 c92 -8 160 -25 183 -47 46 -43 31 -45 -308 -45 -341 -1
-359 2 -303 46 35 27 92 42 198 50 88 6 106 6 230 -4z m105 -144 l55 -7 -1
-59 -2 -59 -282 0 -282 0 -2 59 -1 59 45 6 c61 8 402 9 470 1z m25 -184 c48
-15 60 -49 24 -68 -55 -30 -477 -31 -551 -1 -34 13 -37 45 -5 63 12 6 54 15
92 19 105 11 393 3 440 -13z"/>
<path d="M4905 2645 c-22 -21 -25 -33 -25 -103 l0 -79 62 -54 c108 -93 98 -66
98 -272 l0 -182 -90 -90 -90 -90 0 -65 c0 -38 5 -71 12 -78 17 -17 849 -17
866 0 7 7 12 39 12 72 l0 61 -92 92 -93 93 -3 182 -3 181 80 75 81 75 0 82 c0
73 -3 84 -24 104 -21 19 -32 22 -102 19 l-79 -3 -18 -37 c-24 -48 -63 -54 -73
-10 -12 48 -20 52 -118 52 -50 0 -97 -4 -104 -9 -7 -4 -16 -21 -21 -37 -6 -24
-13 -29 -37 -29 -23 0 -30 5 -32 25 -5 39 -29 50 -109 50 -65 0 -77 -3 -98
-25z m165 -70 c5 -30 5 -30 75 -30 64 0 70 2 73 22 5 35 26 44 94 41 61 -3 63
-4 68 -33 5 -29 7 -30 68 -33 70 -3 92 7 92 44 0 23 4 24 60 24 70 0 80 -11
80 -88 0 -50 -1 -51 -64 -101 l-64 -51 -250 0 -251 0 -60 50 -61 51 0 57 c0
33 5 63 12 70 8 8 34 12 68 10 52 -3 55 -4 60 -33z m448 -422 c2 -162 2 -163
-20 -168 -13 -3 -108 -4 -213 -3 l-190 3 -3 168 -2 167 212 -2 213 -3 3 -162z
m58 -264 c30 -29 54 -58 54 -65 0 -12 -59 -14 -330 -14 -181 0 -330 3 -330 7
0 4 26 33 57 65 l57 58 219 0 218 0 55 -51z m128 -154 c4 -14 2 -34 -4 -45
-11 -20 -20 -20 -403 -18 l-392 3 -3 28 c-7 60 -27 57 402 57 l394 0 6 -25z"/>
<path d="M9934 2635 c-31 -41 -36 -42 -92 -15 -23 11 -62 23 -88 27 l-46 6 7
-55 c9 -74 -2 -111 -105 -338 -48 -107 -96 -218 -105 -247 -16 -50 -16 -53 3
-80 36 -50 61 -66 106 -69 29 -2 52 -10 65 -23 37 -37 67 -28 107 35 45 70 99
124 159 159 91 54 84 -1 -20 -155 -68 -100 -115 -198 -115 -240 0 -20 9 -20
369 -20 l368 0 7 38 c16 98 -4 314 -40 440 -71 244 -245 432 -402 432 -30 0
-35 5 -53 48 -24 56 -56 92 -80 92 -10 0 -30 -16 -45 -35z m-113 -54 l23 -18
-33 -17 c-42 -22 -61 -15 -61 24 0 25 4 30 24 30 13 0 34 -8 47 -19z m194 -47
l20 -59 75 -5 c88 -6 109 -18 199 -116 39 -43 75 -97 105 -157 65 -134 80
-204 80 -377 l1 -145 -303 -3 c-254 -2 -303 0 -308 12 -7 18 25 80 89 176 63
93 87 155 87 224 0 30 9 83 20 118 22 70 25 98 10 98 -14 0 -57 -79 -72 -133
-11 -42 -18 -51 -66 -78 -69 -39 -130 -96 -178 -165 -28 -41 -43 -54 -58 -52
-15 2 -20 10 -19 26 3 25 1 26 -43 10 -42 -15 -89 4 -109 43 -18 34 -11 55 96
274 41 83 84 173 95 201 20 49 23 52 94 79 41 16 90 43 109 61 20 19 41 32 46
30 6 -1 19 -29 30 -62z"/>
<path d="M9756 2345 c-29 -27 -36 -75 -10 -75 37 0 104 52 104 82 0 28 -60 24
-94 -7z"/>
<path d="M9590 2015 c-13 -15 -7 -45 8 -45 17 0 33 27 26 44 -8 20 -18 20 -34
1z"/>
<path d="M12365 2663 c-40 -10 -84 -53 -95 -92 -8 -29 -6 -50 5 -87 15 -48 14
-49 -8 -64 -44 -29 -86 -81 -93 -115 -12 -67 4 -126 47 -167 21 -20 39 -39 39
-42 0 -3 -25 -21 -55 -42 -119 -78 -164 -165 -172 -331 l-6 -103 387 0 386 0
0 58 c0 63 -27 176 -55 235 -22 47 -92 119 -145 148 -22 13 -40 26 -40 31 0 4
18 26 39 47 45 45 57 86 47 156 -7 45 -40 87 -95 125 -22 15 -22 16 -6 60 42
117 -53 214 -180 183z m110 -68 c29 -28 31 -51 10 -102 -23 -54 -19 -67 30
-108 55 -45 75 -81 75 -136 0 -39 -5 -48 -50 -90 -27 -26 -50 -54 -50 -63 0
-9 21 -31 48 -49 26 -17 73 -57 104 -88 48 -48 60 -68 78 -127 12 -39 20 -89
18 -113 l-3 -44 -325 0 -325 0 1 71 c1 119 57 206 197 301 57 39 59 61 12 97
-92 70 -86 166 14 247 45 36 48 49 26 102 -21 51 -19 74 10 102 34 35 96 35
130 0z"/>
</g>
</svg>
